<?xml version="1.0" encoding="UTF-8" standalone="no"?>
<!-- Created with Inkscape (http://www.inkscape.org/) -->

<svg
   xmlns:dc="http://purl.org/dc/elements/1.1/"
   xmlns:cc="http://creativecommons.org/ns#"
   xmlns:rdf="http://www.w3.org/1999/02/22-rdf-syntax-ns#"
   xmlns:svg="http://www.w3.org/2000/svg"
   xmlns="http://www.w3.org/2000/svg"
   xmlns:xlink="http://www.w3.org/1999/xlink"
   xmlns:sodipodi="http://sodipodi.sourceforge.net/DTD/sodipodi-0.dtd"
   xmlns:inkscape="http://www.inkscape.org/namespaces/inkscape"
   width="210mm"
   height="297mm"
   viewBox="0 0 210 297"
   version="1.1"
   id="svg8"
   inkscape:export-filename="/Users/fedgar01/hexbid.png"
   inkscape:export-xdpi="200"
   inkscape:export-ydpi="200"
   inkscape:version="0.92.2 5c3e80d, 2017-08-06"
   sodipodi:docname="bid_grid.svg">
  <defs
     id="defs2" />
  <sodipodi:namedview
     id="base"
     pagecolor="#ffffff"
     bordercolor="#666666"
     borderopacity="1.0"
     inkscape:pageopacity="0.0"
     inkscape:pageshadow="2"
     inkscape:zoom="0.7"
     inkscape:cx="197.97358"
     inkscape:cy="571.75995"
     inkscape:document-units="mm"
     inkscape:current-layer="layer1"
     showgrid="false"
     inkscape:window-width="2155"
     inkscape:window-height="1147"
     inkscape:window-x="125"
     inkscape:window-y="75"
     inkscape:window-maximized="0"
     showguides="true"
     inkscape:guide-bbox="true">
    <sodipodi:guide
       position="173.86905,40.821428"
       orientation="0,1"
       id="guide817"
       inkscape:locked="false" />
    <sodipodi:guide
       position="224.89583,190.12202"
       orientation="1,0"
       id="guide1595"
       inkscape:locked="false" />
  </sodipodi:namedview>
  <metadata
     id="metadata5">
    <rdf:RDF>
      <cc:Work
         rdf:about="">
        <dc:format>image/svg+xml</dc:format>
        <dc:type
           rdf:resource="http://purl.org/dc/dcmitype/StillImage" />
        <dc:title />
      </cc:Work>
    </rdf:RDF>
  </metadata>
  <g
     inkscape:label="Layer 1"
     inkscape:groupmode="layer"
     id="layer1">
    <g
       id="g4518"
       transform="matrix(0.31262573,0,0,0.31262573,89.384129,38.393314)"
       inkscape:tile-cx="26.586734"
       inkscape:tile-cy="46.869414"
       inkscape:tile-w="17.617373"
       inkscape:tile-h="15.287269"
       inkscape:tile-x0="17.778048"
       inkscape:tile-y0="39.22578">
      <g
         style="stroke:#66666d;stroke-opacity:1"
         transform="matrix(1.2825048,0,0,1.2825048,-40.230474,47.880581)"
         inkscape:tile-y0="-44.632287"
         inkscape:tile-x0="-47.913818"
         id="use5058">
        <path
           transform="matrix(0.50357973,0.09180438,-0.09180438,0.50357973,-79.976061,134.69252)"
           style="opacity:1;fill:none;fill-opacity:0.31638417;stroke:#66666d;stroke-width:1.95358491;stroke-miterlimit:4;stroke-dasharray:none;stroke-dashoffset:0;stroke-opacity:1"
           inkscape:transform-center-x="0.22310539"
           inkscape:transform-center-y="-1.983612"
           d="m -18.142855,41.488096 -49.641349,8.874195 -32.505956,-38.553572 17.1354,-47.427767 49.641349,-8.874195 32.5059526,38.553572 z"
           id="path1143"
           inkscape:connector-curvature="0" />
      </g>
    </g>
    <use
       x="0"
       y="0"
       inkscape:tiled-clone-of="#g4518"
       xlink:href="#g4518"
       id="use910"
       width="100%"
       height="100%" />
    <use
       x="0"
       y="0"
       inkscape:tiled-clone-of="#g4518"
       xlink:href="#g4518"
       transform="translate(5.3047618e-7,18.363213)"
       id="use912"
       width="100%"
       height="100%" />
    <use
       x="0"
       y="0"
       inkscape:tiled-clone-of="#g4518"
       xlink:href="#g4518"
       transform="translate(5.3047618e-7,36.726425)"
       id="use914"
       width="100%"
       height="100%" />
    <use
       x="0"
       y="0"
       inkscape:tiled-clone-of="#g4518"
       xlink:href="#g4518"
       transform="translate(5.3047618e-7,55.089634)"
       id="use916"
       width="100%"
       height="100%" />
    <use
       x="0"
       y="0"
       inkscape:tiled-clone-of="#g4518"
       xlink:href="#g4518"
       transform="translate(5.3047618e-7,73.452848)"
       id="use918"
       width="100%"
       height="100%" />
    <use
       x="0"
       y="0"
       inkscape:tiled-clone-of="#g4518"
       xlink:href="#g4518"
       transform="translate(5.3047618e-7,91.81606)"
       id="use920"
       width="100%"
       height="100%" />
    <use
       x="0"
       y="0"
       inkscape:tiled-clone-of="#g4518"
       xlink:href="#g4518"
       transform="translate(5.3047618e-7,110.17927)"
       id="use922"
       width="100%"
       height="100%" />
    <use
       x="0"
       y="0"
       inkscape:tiled-clone-of="#g4518"
       xlink:href="#g4518"
       transform="translate(5.3047618e-7,128.54249)"
       id="use924"
       width="100%"
       height="100%" />
    <use
       x="0"
       y="0"
       inkscape:tiled-clone-of="#g4518"
       xlink:href="#g4518"
       transform="translate(5.3047618e-7,146.9057)"
       id="use926"
       width="100%"
       height="100%" />
    <use
       x="0"
       y="0"
       inkscape:tiled-clone-of="#g4518"
       xlink:href="#g4518"
       transform="translate(5.3047618e-7,165.26892)"
       id="use928"
       width="100%"
       height="100%" />
    <use
       x="0"
       y="0"
       inkscape:tiled-clone-of="#g4518"
       xlink:href="#g4518"
       transform="translate(15.871618,-9.1816065)"
       id="use930"
       width="100%"
       height="100%" />
    <use
       x="0"
       y="0"
       inkscape:tiled-clone-of="#g4518"
       xlink:href="#g4518"
       transform="translate(15.871618,9.181605)"
       id="use932"
       width="100%"
       height="100%" />
    <use
       x="0"
       y="0"
       inkscape:tiled-clone-of="#g4518"
       xlink:href="#g4518"
       transform="translate(15.871618,27.544819)"
       id="use934"
       width="100%"
       height="100%" />
    <use
       x="0"
       y="0"
       inkscape:tiled-clone-of="#g4518"
       xlink:href="#g4518"
       transform="translate(15.871618,45.908032)"
       id="use936"
       width="100%"
       height="100%" />
    <use
       x="0"
       y="0"
       inkscape:tiled-clone-of="#g4518"
       xlink:href="#g4518"
       transform="translate(15.871618,64.271247)"
       id="use938"
       width="100%"
       height="100%" />
    <use
       x="0"
       y="0"
       inkscape:tiled-clone-of="#g4518"
       xlink:href="#g4518"
       transform="translate(15.871618,82.634462)"
       id="use940"
       width="100%"
       height="100%" />
    <use
       x="0"
       y="0"
       inkscape:tiled-clone-of="#g4518"
       xlink:href="#g4518"
       transform="translate(15.871618,100.99768)"
       id="use942"
       width="100%"
       height="100%" />
    <use
       x="0"
       y="0"
       inkscape:tiled-clone-of="#g4518"
       xlink:href="#g4518"
       transform="translate(15.871618,119.36088)"
       id="use944"
       width="100%"
       height="100%" />
    <use
       x="0"
       y="0"
       inkscape:tiled-clone-of="#g4518"
       xlink:href="#g4518"
       transform="translate(15.871618,137.7241)"
       id="use946"
       width="100%"
       height="100%" />
    <use
       x="0"
       y="0"
       inkscape:tiled-clone-of="#g4518"
       xlink:href="#g4518"
       transform="translate(15.871618,156.08731)"
       id="use948"
       width="100%"
       height="100%" />
    <use
       x="0"
       y="0"
       inkscape:tiled-clone-of="#g4518"
       xlink:href="#g4518"
       transform="translate(31.743235,-18.363213)"
       id="use950"
       width="100%"
       height="100%" />
    <use
       x="0"
       y="0"
       inkscape:tiled-clone-of="#g4518"
       xlink:href="#g4518"
       transform="translate(31.743235)"
       id="use952"
       width="100%"
       height="100%" />
    <use
       x="0"
       y="0"
       inkscape:tiled-clone-of="#g4518"
       xlink:href="#g4518"
       transform="translate(31.743235,18.363213)"
       id="use954"
       width="100%"
       height="100%" />
    <use
       x="0"
       y="0"
       inkscape:tiled-clone-of="#g4518"
       xlink:href="#g4518"
       transform="translate(31.743235,36.726425)"
       id="use956"
       width="100%"
       height="100%" />
    <use
       x="0"
       y="0"
       inkscape:tiled-clone-of="#g4518"
       xlink:href="#g4518"
       transform="translate(31.743235,55.089634)"
       id="use958"
       width="100%"
       height="100%" />
    <use
       x="0"
       y="0"
       inkscape:tiled-clone-of="#g4518"
       xlink:href="#g4518"
       transform="translate(31.743235,73.452848)"
       id="use960"
       width="100%"
       height="100%" />
    <use
       x="0"
       y="0"
       inkscape:tiled-clone-of="#g4518"
       xlink:href="#g4518"
       transform="translate(31.743235,91.81606)"
       id="use962"
       width="100%"
       height="100%" />
    <use
       x="0"
       y="0"
       inkscape:tiled-clone-of="#g4518"
       xlink:href="#g4518"
       transform="translate(31.743235,110.17927)"
       id="use964"
       width="100%"
       height="100%" />
    <use
       x="0"
       y="0"
       inkscape:tiled-clone-of="#g4518"
       xlink:href="#g4518"
       transform="translate(31.743235,128.54249)"
       id="use966"
       width="100%"
       height="100%" />
    <use
       x="0"
       y="0"
       inkscape:tiled-clone-of="#g4518"
       xlink:href="#g4518"
       transform="translate(31.743235,146.9057)"
       id="use968"
       width="100%"
       height="100%" />
    <use
       x="0"
       y="0"
       inkscape:tiled-clone-of="#g4518"
       xlink:href="#g4518"
       transform="translate(47.614853,-27.544819)"
       id="use970"
       width="100%"
       height="100%" />
    <use
       x="0"
       y="0"
       inkscape:tiled-clone-of="#g4518"
       xlink:href="#g4518"
       transform="translate(47.614853,-9.1816065)"
       id="use972"
       width="100%"
       height="100%" />
    <use
       x="0"
       y="0"
       inkscape:tiled-clone-of="#g4518"
       xlink:href="#g4518"
       transform="translate(47.614853,9.181605)"
       id="use974"
       width="100%"
       height="100%" />
    <use
       x="0"
       y="0"
       inkscape:tiled-clone-of="#g4518"
       xlink:href="#g4518"
       transform="translate(47.614853,27.544819)"
       id="use976"
       width="100%"
       height="100%" />
    <use
       x="0"
       y="0"
       inkscape:tiled-clone-of="#g4518"
       xlink:href="#g4518"
       transform="translate(47.614853,45.908032)"
       id="use978"
       width="100%"
       height="100%" />
    <use
       x="0"
       y="0"
       inkscape:tiled-clone-of="#g4518"
       xlink:href="#g4518"
       transform="translate(47.614853,64.271247)"
       id="use980"
       width="100%"
       height="100%" />
    <use
       x="0"
       y="0"
       inkscape:tiled-clone-of="#g4518"
       xlink:href="#g4518"
       transform="translate(47.614853,82.634462)"
       id="use982"
       width="100%"
       height="100%" />
    <use
       x="0"
       y="0"
       inkscape:tiled-clone-of="#g4518"
       xlink:href="#g4518"
       transform="translate(47.614853,100.99768)"
       id="use984"
       width="100%"
       height="100%" />
    <use
       x="0"
       y="0"
       inkscape:tiled-clone-of="#g4518"
       xlink:href="#g4518"
       transform="translate(47.614853,119.36088)"
       id="use986"
       width="100%"
       height="100%" />
    <use
       x="0"
       y="0"
       inkscape:tiled-clone-of="#g4518"
       xlink:href="#g4518"
       transform="translate(47.614853,137.7241)"
       id="use988"
       width="100%"
       height="100%" />
    <use
       x="0"
       y="0"
       inkscape:tiled-clone-of="#g4518"
       xlink:href="#g4518"
       transform="translate(63.48647,-36.726425)"
       id="use990"
       width="100%"
       height="100%" />
    <use
       x="0"
       y="0"
       inkscape:tiled-clone-of="#g4518"
       xlink:href="#g4518"
       transform="translate(63.48647,-18.363213)"
       id="use992"
       width="100%"
       height="100%" />
    <use
       x="0"
       y="0"
       inkscape:tiled-clone-of="#g4518"
       xlink:href="#g4518"
       transform="translate(63.48647)"
       id="use994"
       width="100%"
       height="100%" />
    <use
       x="0"
       y="0"
       inkscape:tiled-clone-of="#g4518"
       xlink:href="#g4518"
       transform="translate(63.48647,18.363213)"
       id="use996"
       width="100%"
       height="100%" />
    <use
       x="0"
       y="0"
       inkscape:tiled-clone-of="#g4518"
       xlink:href="#g4518"
       transform="translate(63.48647,36.726425)"
       id="use998"
       width="100%"
       height="100%" />
    <use
       x="0"
       y="0"
       inkscape:tiled-clone-of="#g4518"
       xlink:href="#g4518"
       transform="translate(63.48647,55.089634)"
       id="use1000"
       width="100%"
       height="100%" />
    <use
       x="0"
       y="0"
       inkscape:tiled-clone-of="#g4518"
       xlink:href="#g4518"
       transform="translate(63.48647,73.452848)"
       id="use1002"
       width="100%"
       height="100%" />
    <use
       x="0"
       y="0"
       inkscape:tiled-clone-of="#g4518"
       xlink:href="#g4518"
       transform="translate(63.48647,91.81606)"
       id="use1004"
       width="100%"
       height="100%" />
    <use
       x="0"
       y="0"
       inkscape:tiled-clone-of="#g4518"
       xlink:href="#g4518"
       transform="translate(63.48647,110.17927)"
       id="use1006"
       width="100%"
       height="100%" />
    <use
       x="0"
       y="0"
       inkscape:tiled-clone-of="#g4518"
       xlink:href="#g4518"
       transform="translate(63.48647,128.54249)"
       id="use1008"
       width="100%"
       height="100%" />
    <use
       x="0"
       y="0"
       inkscape:tiled-clone-of="#g4518"
       xlink:href="#g4518"
       transform="translate(79.358088,-45.908032)"
       id="use1010"
       width="100%"
       height="100%" />
    <use
       x="0"
       y="0"
       inkscape:tiled-clone-of="#g4518"
       xlink:href="#g4518"
       transform="translate(79.358088,-27.544819)"
       id="use1012"
       width="100%"
       height="100%" />
    <use
       x="0"
       y="0"
       inkscape:tiled-clone-of="#g4518"
       xlink:href="#g4518"
       transform="translate(79.358088,-9.1816065)"
       id="use1014"
       width="100%"
       height="100%" />
    <use
       x="0"
       y="0"
       inkscape:tiled-clone-of="#g4518"
       xlink:href="#g4518"
       transform="translate(79.358088,9.181605)"
       id="use1016"
       width="100%"
       height="100%" />
    <use
       x="0"
       y="0"
       inkscape:tiled-clone-of="#g4518"
       xlink:href="#g4518"
       transform="translate(79.358088,27.544819)"
       id="use1018"
       width="100%"
       height="100%" />
    <use
       x="0"
       y="0"
       inkscape:tiled-clone-of="#g4518"
       xlink:href="#g4518"
       transform="translate(79.358088,45.908032)"
       id="use1020"
       width="100%"
       height="100%" />
    <use
       x="0"
       y="0"
       inkscape:tiled-clone-of="#g4518"
       xlink:href="#g4518"
       transform="translate(79.358088,64.271247)"
       id="use1022"
       width="100%"
       height="100%" />
    <use
       x="0"
       y="0"
       inkscape:tiled-clone-of="#g4518"
       xlink:href="#g4518"
       transform="translate(79.358088,82.634462)"
       id="use1024"
       width="100%"
       height="100%" />
    <use
       x="0"
       y="0"
       inkscape:tiled-clone-of="#g4518"
       xlink:href="#g4518"
       transform="translate(79.358088,100.99768)"
       id="use1026"
       width="100%"
       height="100%" />
    <use
       x="0"
       y="0"
       inkscape:tiled-clone-of="#g4518"
       xlink:href="#g4518"
       transform="translate(79.358088,119.36088)"
       id="use1028"
       width="100%"
       height="100%" />
    <use
       x="0"
       y="0"
       inkscape:tiled-clone-of="#g4518"
       xlink:href="#g4518"
       transform="translate(95.229705,-55.089638)"
       id="use1030"
       width="100%"
       height="100%" />
    <use
       x="0"
       y="0"
       inkscape:tiled-clone-of="#g4518"
       xlink:href="#g4518"
       transform="translate(95.229705,-36.726425)"
       id="use1032"
       width="100%"
       height="100%" />
    <use
       x="0"
       y="0"
       inkscape:tiled-clone-of="#g4518"
       xlink:href="#g4518"
       transform="translate(95.229705,-18.363213)"
       id="use1034"
       width="100%"
       height="100%" />
    <use
       x="0"
       y="0"
       inkscape:tiled-clone-of="#g4518"
       xlink:href="#g4518"
       transform="translate(95.229705)"
       id="use1036"
       width="100%"
       height="100%" />
    <use
       x="0"
       y="0"
       inkscape:tiled-clone-of="#g4518"
       xlink:href="#g4518"
       transform="translate(95.229705,18.363213)"
       id="use1038"
       width="100%"
       height="100%" />
    <use
       x="0"
       y="0"
       inkscape:tiled-clone-of="#g4518"
       xlink:href="#g4518"
       transform="translate(95.229705,36.726425)"
       id="use1040"
       width="100%"
       height="100%" />
    <use
       x="0"
       y="0"
       inkscape:tiled-clone-of="#g4518"
       xlink:href="#g4518"
       transform="translate(95.229705,55.089634)"
       id="use1042"
       width="100%"
       height="100%" />
    <use
       x="0"
       y="0"
       inkscape:tiled-clone-of="#g4518"
       xlink:href="#g4518"
       transform="translate(95.229705,73.452848)"
       id="use1044"
       width="100%"
       height="100%" />
    <use
       x="0"
       y="0"
       inkscape:tiled-clone-of="#g4518"
       xlink:href="#g4518"
       transform="translate(95.229705,91.81606)"
       id="use1046"
       width="100%"
       height="100%" />
    <use
       x="0"
       y="0"
       inkscape:tiled-clone-of="#g4518"
       xlink:href="#g4518"
       transform="translate(95.229705,110.17927)"
       id="use1048"
       width="100%"
       height="100%" />
    <use
       x="0"
       y="0"
       inkscape:tiled-clone-of="#g4518"
       xlink:href="#g4518"
       transform="translate(111.10133,-64.271244)"
       id="use1050"
       width="100%"
       height="100%" />
    <use
       x="0"
       y="0"
       inkscape:tiled-clone-of="#g4518"
       xlink:href="#g4518"
       transform="translate(111.10133,-45.908032)"
       id="use1052"
       width="100%"
       height="100%" />
    <use
       x="0"
       y="0"
       inkscape:tiled-clone-of="#g4518"
       xlink:href="#g4518"
       transform="translate(111.10133,-27.544819)"
       id="use1054"
       width="100%"
       height="100%" />
    <use
       x="0"
       y="0"
       inkscape:tiled-clone-of="#g4518"
       xlink:href="#g4518"
       transform="translate(111.10133,-9.1816065)"
       id="use1056"
       width="100%"
       height="100%" />
    <use
       x="0"
       y="0"
       inkscape:tiled-clone-of="#g4518"
       xlink:href="#g4518"
       transform="translate(111.10133,9.181605)"
       id="use1058"
       width="100%"
       height="100%" />
    <use
       x="0"
       y="0"
       inkscape:tiled-clone-of="#g4518"
       xlink:href="#g4518"
       transform="translate(111.10133,27.544819)"
       id="use1060"
       width="100%"
       height="100%" />
    <use
       x="0"
       y="0"
       inkscape:tiled-clone-of="#g4518"
       xlink:href="#g4518"
       transform="translate(111.10133,45.908032)"
       id="use1062"
       width="100%"
       height="100%" />
    <use
       x="0"
       y="0"
       inkscape:tiled-clone-of="#g4518"
       xlink:href="#g4518"
       transform="translate(111.10133,64.271247)"
       id="use1064"
       width="100%"
       height="100%" />
    <use
       x="0"
       y="0"
       inkscape:tiled-clone-of="#g4518"
       xlink:href="#g4518"
       transform="translate(111.10133,82.634462)"
       id="use1066"
       width="100%"
       height="100%" />
    <use
       x="0"
       y="0"
       inkscape:tiled-clone-of="#g4518"
       xlink:href="#g4518"
       transform="translate(111.10133,100.99768)"
       id="use1068"
       width="100%"
       height="100%" />
    <use
       x="0"
       y="0"
       inkscape:tiled-clone-of="#g4518"
       xlink:href="#g4518"
       transform="translate(126.97294,-73.45285)"
       id="use1070"
       width="100%"
       height="100%" />
    <use
       x="0"
       y="0"
       inkscape:tiled-clone-of="#g4518"
       xlink:href="#g4518"
       transform="translate(126.97294,-55.089638)"
       id="use1072"
       width="100%"
       height="100%" />
    <use
       x="0"
       y="0"
       inkscape:tiled-clone-of="#g4518"
       xlink:href="#g4518"
       transform="translate(126.97294,-36.726425)"
       id="use1074"
       width="100%"
       height="100%" />
    <use
       x="0"
       y="0"
       inkscape:tiled-clone-of="#g4518"
       xlink:href="#g4518"
       transform="translate(126.97294,-18.363213)"
       id="use1076"
       width="100%"
       height="100%" />
    <use
       x="0"
       y="0"
       inkscape:tiled-clone-of="#g4518"
       xlink:href="#g4518"
       transform="translate(126.97294)"
       id="use1078"
       width="100%"
       height="100%" />
    <use
       x="0"
       y="0"
       inkscape:tiled-clone-of="#g4518"
       xlink:href="#g4518"
       transform="translate(126.97294,18.363213)"
       id="use1080"
       width="100%"
       height="100%" />
    <use
       x="0"
       y="0"
       inkscape:tiled-clone-of="#g4518"
       xlink:href="#g4518"
       transform="translate(126.97294,36.726425)"
       id="use1082"
       width="100%"
       height="100%" />
    <use
       x="0"
       y="0"
       inkscape:tiled-clone-of="#g4518"
       xlink:href="#g4518"
       transform="translate(126.97294,55.089634)"
       id="use1084"
       width="100%"
       height="100%" />
    <use
       x="0"
       y="0"
       inkscape:tiled-clone-of="#g4518"
       xlink:href="#g4518"
       transform="translate(126.97294,73.452848)"
       id="use1086"
       width="100%"
       height="100%" />
    <use
       x="0"
       y="0"
       inkscape:tiled-clone-of="#g4518"
       xlink:href="#g4518"
       transform="translate(126.97294,91.81606)"
       id="use1088"
       width="100%"
       height="100%" />
    <use
       x="0"
       y="0"
       inkscape:tiled-clone-of="#g4518"
       xlink:href="#g4518"
       transform="translate(142.84455,-82.634457)"
       id="use1090"
       width="100%"
       height="100%" />
    <use
       x="0"
       y="0"
       inkscape:tiled-clone-of="#g4518"
       xlink:href="#g4518"
       transform="translate(142.84455,-64.271244)"
       id="use1092"
       width="100%"
       height="100%" />
    <use
       x="0"
       y="0"
       inkscape:tiled-clone-of="#g4518"
       xlink:href="#g4518"
       transform="translate(142.84455,-45.908032)"
       id="use1094"
       width="100%"
       height="100%" />
    <use
       x="0"
       y="0"
       inkscape:tiled-clone-of="#g4518"
       xlink:href="#g4518"
       transform="translate(142.84455,-27.544819)"
       id="use1096"
       width="100%"
       height="100%" />
    <use
       x="0"
       y="0"
       inkscape:tiled-clone-of="#g4518"
       xlink:href="#g4518"
       transform="translate(142.84455,-9.1816065)"
       id="use1098"
       width="100%"
       height="100%" />
    <use
       x="0"
       y="0"
       inkscape:tiled-clone-of="#g4518"
       xlink:href="#g4518"
       transform="translate(142.84455,9.181605)"
       id="use1100"
       width="100%"
       height="100%" />
    <use
       x="0"
       y="0"
       inkscape:tiled-clone-of="#g4518"
       xlink:href="#g4518"
       transform="translate(142.84455,27.544819)"
       id="use1102"
       width="100%"
       height="100%" />
    <use
       x="0"
       y="0"
       inkscape:tiled-clone-of="#g4518"
       xlink:href="#g4518"
       transform="translate(142.84455,45.908032)"
       id="use1104"
       width="100%"
       height="100%" />
    <use
       x="0"
       y="0"
       inkscape:tiled-clone-of="#g4518"
       xlink:href="#g4518"
       transform="translate(142.84455,64.271247)"
       id="use1106"
       width="100%"
       height="100%" />
    <use
       x="0"
       y="0"
       inkscape:tiled-clone-of="#g4518"
       xlink:href="#g4518"
       transform="translate(142.84455,82.634462)"
       id="use1108"
       width="100%"
       height="100%" />
  </g>
</svg>
