<?xml version="1.0" encoding="UTF-8" standalone="no"?>
<!-- Created with Inkscape (http://www.inkscape.org/) -->

<svg
   xmlns:dc="http://purl.org/dc/elements/1.1/"
   xmlns:cc="http://creativecommons.org/ns#"
   xmlns:rdf="http://www.w3.org/1999/02/22-rdf-syntax-ns#"
   xmlns:svg="http://www.w3.org/2000/svg"
   xmlns="http://www.w3.org/2000/svg"
   xmlns:sodipodi="http://sodipodi.sourceforge.net/DTD/sodipodi-0.dtd"
   xmlns:inkscape="http://www.inkscape.org/namespaces/inkscape"
   width="210mm"
   height="297mm"
   viewBox="0 0 210 297"
   version="1.1"
   id="svg8"
   inkscape:export-filename="/Users/fedgar01/randomv2_2.png"
   inkscape:export-xdpi="200"
   inkscape:export-ydpi="200"
   inkscape:version="0.92.2 5c3e80d, 2017-08-06"
   sodipodi:docname="hexagon_deleted.svg">
  <defs
     id="defs2" />
  <sodipodi:namedview
     id="base"
     pagecolor="#ffffff"
     bordercolor="#666666"
     borderopacity="1.0"
     inkscape:pageopacity="0.0"
     inkscape:pageshadow="2"
     inkscape:zoom="0.49497475"
     inkscape:cx="164.94928"
     inkscape:cy="702.92799"
     inkscape:document-units="mm"
     inkscape:current-layer="g4518"
     showgrid="false"
     inkscape:window-width="2155"
     inkscape:window-height="1147"
     inkscape:window-x="124"
     inkscape:window-y="133"
     inkscape:window-maximized="0"
     showguides="true"
     inkscape:guide-bbox="true">
    <sodipodi:guide
       position="173.86905,40.821428"
       orientation="0,1"
       id="guide817"
       inkscape:locked="false" />
    <sodipodi:guide
       position="224.89583,40.821428"
       orientation="1,0"
       id="guide1595"
       inkscape:locked="false" />
  </sodipodi:namedview>
  <metadata
     id="metadata5">
    <rdf:RDF>
      <cc:Work
         rdf:about="">
        <dc:format>image/svg+xml</dc:format>
        <dc:type
           rdf:resource="http://purl.org/dc/dcmitype/StillImage" />
        <dc:title />
      </cc:Work>
    </rdf:RDF>
  </metadata>
  <g
     inkscape:label="Layer 1"
     inkscape:groupmode="layer"
     id="layer1"
     style="display:inline">
    <g
       id="g4518"
       transform="translate(84.227771,-153.25282)">
      <g
         style="stroke:#66666d;stroke-opacity:1"
         transform="matrix(1.2825048,0,0,1.2825048,131.11269,51.395182)"
         inkscape:tile-y0="-44.632287"
         inkscape:tile-x0="-47.913818"
         id="use5058">
        <path
           transform="matrix(0.50357973,0.09180438,-0.09180438,0.50357973,-79.976061,134.69252)"
           style="opacity:1;fill:none;fill-opacity:0.31638417;stroke:#66666d;stroke-width:1.95358491;stroke-miterlimit:4;stroke-dasharray:none;stroke-dashoffset:0;stroke-opacity:1"
           inkscape:transform-center-x="0.22310539"
           inkscape:transform-center-y="-1.983612"
           d="m -18.142855,41.488096 -49.641349,8.874195 -32.505956,-38.553572 17.1354,-47.427767 49.641349,-8.874195 32.5059526,38.553572 z"
           id="path1143"
           inkscape:connector-curvature="0" />
        <path
           inkscape:connector-curvature="0"
           id="path1147"
           d="m -118.58113,109.12152 25.659906,44.79798"
           style="fill:#008000;fill-opacity:0.31638417;fill-rule:evenodd;stroke:#66666d;stroke-width:0.5118795;stroke-linecap:butt;stroke-linejoin:miter;stroke-miterlimit:4;stroke-dasharray:none;stroke-opacity:1" />
        <path
           inkscape:connector-curvature="0"
           id="path1149"
           d="m -118.73429,153.83107 25.966229,-44.62112"
           style="fill:#008000;fill-opacity:0.31638417;fill-rule:evenodd;stroke:#66666d;stroke-width:0.5118795;stroke-linecap:butt;stroke-linejoin:miter;stroke-miterlimit:4;stroke-dasharray:none;stroke-opacity:1" />
      </g>
      <g
         style="stroke:#66666d;stroke-opacity:1"
         transform="matrix(1.2825048,0,0,1.2825048,131.11269,110.13384)"
         inkscape:tile-y0="-44.632287"
         inkscape:tile-x0="-47.913818"
         id="use5060">
        <path
           transform="matrix(0.50357973,0.09180438,-0.09180438,0.50357973,-79.976061,134.69252)"
           style="opacity:1;fill:none;fill-opacity:0.31638417;stroke:#66666d;stroke-width:1.95358491;stroke-miterlimit:4;stroke-dasharray:none;stroke-dashoffset:0;stroke-opacity:1"
           inkscape:transform-center-x="0.22310539"
           inkscape:transform-center-y="-1.983612"
           d="m -18.142855,41.488096 -49.641349,8.874195 -32.505956,-38.553572 17.1354,-47.427767 49.641349,-8.874195 32.5059526,38.553572 z"
           id="path1153"
           inkscape:connector-curvature="0" />
        <path
           inkscape:connector-curvature="0"
           id="path1155"
           d="m -131.56424,131.43207 51.626131,0.17687"
           style="fill:#008000;fill-opacity:0.31638417;fill-rule:evenodd;stroke:#66666d;stroke-width:0.5118795;stroke-linecap:butt;stroke-linejoin:miter;stroke-miterlimit:4;stroke-dasharray:none;stroke-opacity:1" />
        <path
           inkscape:connector-curvature="0"
           id="path1159"
           d="m -118.73429,153.83107 25.966229,-44.62112"
           style="fill:#008000;fill-opacity:0.31638417;fill-rule:evenodd;stroke:#66666d;stroke-width:0.5118795;stroke-linecap:butt;stroke-linejoin:miter;stroke-miterlimit:4;stroke-dasharray:none;stroke-opacity:1" />
      </g>
      <g
         style="stroke:#66666d;stroke-opacity:1"
         transform="matrix(1.2825048,0,0,1.2825048,131.15856,168.68348)"
         inkscape:tile-y0="-44.632287"
         inkscape:tile-x0="-47.913818"
         id="use5062">
        <path
           transform="matrix(0.50357973,0.09180438,-0.09180438,0.50357973,-79.976061,134.69252)"
           style="opacity:1;fill:none;fill-opacity:0.31638417;stroke:#66666d;stroke-width:1.95358491;stroke-miterlimit:4;stroke-dasharray:none;stroke-dashoffset:0;stroke-opacity:1"
           inkscape:transform-center-x="0.22310539"
           inkscape:transform-center-y="-1.983612"
           d="m -18.142855,41.488096 -49.641349,8.874195 -32.505956,-38.553572 m 17.1354,-47.427767 49.641349,-8.874195 32.5059526,38.553572"
           id="path1163"
           inkscape:connector-curvature="0"
           sodipodi:nodetypes="cccccc" />
        <path
           inkscape:connector-curvature="0"
           id="path1165"
           d="m -131.56424,131.43207 51.626131,0.17687"
           style="fill:#008000;fill-opacity:0.31638417;fill-rule:evenodd;stroke:#66666d;stroke-width:0.5118795;stroke-linecap:butt;stroke-linejoin:miter;stroke-miterlimit:4;stroke-dasharray:none;stroke-opacity:1" />
        <path
           inkscape:connector-curvature="0"
           id="path1167"
           d="m -118.58113,109.12152 25.659906,44.79798"
           style="fill:#008000;fill-opacity:0.31638417;fill-rule:evenodd;stroke:#66666d;stroke-width:0.5118795;stroke-linecap:butt;stroke-linejoin:miter;stroke-miterlimit:4;stroke-dasharray:none;stroke-opacity:1" />
        <path
           inkscape:connector-curvature="0"
           id="path1169"
           d="m -118.73429,153.83107 25.966229,-44.62112"
           style="fill:#008000;fill-opacity:0.31638417;fill-rule:evenodd;stroke:#66666d;stroke-width:0.5118795;stroke-linecap:butt;stroke-linejoin:miter;stroke-miterlimit:4;stroke-dasharray:none;stroke-opacity:1" />
      </g>
      <g
         style="stroke:#66666d;stroke-opacity:1"
         transform="matrix(1.2825048,0,0,1.2825048,232.65017,110.13383)"
         inkscape:tile-y0="-44.632287"
         inkscape:tile-x0="-47.913818"
         id="use5078">
        <path
           transform="matrix(0.50357973,0.09180438,-0.09180438,0.50357973,-79.976061,134.69252)"
           style="opacity:1;fill:none;fill-opacity:0.31638417;stroke:#66666d;stroke-width:1.95358491;stroke-miterlimit:4;stroke-dasharray:none;stroke-dashoffset:0;stroke-opacity:1"
           inkscape:transform-center-x="0.22310539"
           inkscape:transform-center-y="-1.983612"
           d="m -18.142855,41.488096 -49.641349,8.874195 -32.505956,-38.553572 m 17.1354,-47.427767 49.641349,-8.874195 32.5059526,38.553572"
           id="path1203"
           inkscape:connector-curvature="0"
           sodipodi:nodetypes="cccccc" />
        <path
           inkscape:connector-curvature="0"
           id="path1205"
           d="m -131.56424,131.43207 51.626131,0.17687"
           style="fill:#008000;fill-opacity:0.31638417;fill-rule:evenodd;stroke:#66666d;stroke-width:0.5118795;stroke-linecap:butt;stroke-linejoin:miter;stroke-miterlimit:4;stroke-dasharray:none;stroke-opacity:1" />
        <path
           inkscape:connector-curvature="0"
           id="path1207"
           d="m -118.58113,109.12152 25.659906,44.79798"
           style="fill:#008000;fill-opacity:0.31638417;fill-rule:evenodd;stroke:#66666d;stroke-width:0.5118795;stroke-linecap:butt;stroke-linejoin:miter;stroke-miterlimit:4;stroke-dasharray:none;stroke-opacity:1" />
        <path
           inkscape:connector-curvature="0"
           id="path1209"
           d="m -118.73429,153.83107 25.966229,-44.62112"
           style="fill:#008000;fill-opacity:0.31638417;fill-rule:evenodd;stroke:#66666d;stroke-width:0.5118795;stroke-linecap:butt;stroke-linejoin:miter;stroke-miterlimit:4;stroke-dasharray:none;stroke-opacity:1" />
      </g>
      <g
         style="stroke:#66666d;stroke-opacity:1"
         transform="matrix(1.2825048,0,0,1.2825048,181.88143,198.24182)"
         inkscape:tile-y0="-44.632287"
         inkscape:tile-x0="-47.913818"
         id="use5080">
        <path
           transform="matrix(0.50357973,0.09180438,-0.09180438,0.50357973,-79.976061,134.69252)"
           style="opacity:1;fill:none;fill-opacity:0.31638417;stroke:#66666d;stroke-width:1.95358491;stroke-miterlimit:4;stroke-dasharray:none;stroke-dashoffset:0;stroke-opacity:1"
           inkscape:transform-center-x="0.22310539"
           inkscape:transform-center-y="-1.983612"
           d="m -18.142855,41.488096 -49.641349,8.874195 -32.505956,-38.553572 17.1354,-47.427767 49.641349,-8.874195 32.5059526,38.553572 z"
           id="path1213"
           inkscape:connector-curvature="0" />
        <path
           inkscape:connector-curvature="0"
           id="path1217"
           d="m -118.58113,109.12152 25.659906,44.79798"
           style="fill:#008000;fill-opacity:0.31638417;fill-rule:evenodd;stroke:#66666d;stroke-width:0.5118795;stroke-linecap:butt;stroke-linejoin:miter;stroke-miterlimit:4;stroke-dasharray:none;stroke-opacity:1" />
        <path
           inkscape:connector-curvature="0"
           id="path1219"
           d="m -118.73429,153.83107 25.966229,-44.62112"
           style="fill:#008000;fill-opacity:0.31638417;fill-rule:evenodd;stroke:#66666d;stroke-width:0.5118795;stroke-linecap:butt;stroke-linejoin:miter;stroke-miterlimit:4;stroke-dasharray:none;stroke-opacity:1" />
      </g>
      <g
         style="stroke:#66666d;stroke-opacity:1"
         transform="matrix(1.2825048,0,0,1.2825048,80.343931,80.76451)"
         inkscape:tile-y0="-44.632287"
         inkscape:tile-x0="-47.913818"
         id="use5082">
        <path
           transform="matrix(0.50357973,0.09180438,-0.09180438,0.50357973,-79.976061,134.69252)"
           style="opacity:1;fill:none;fill-opacity:0.31638417;stroke:#66666d;stroke-width:1.95358491;stroke-miterlimit:4;stroke-dasharray:none;stroke-dashoffset:0;stroke-opacity:1"
           inkscape:transform-center-x="0.22310539"
           inkscape:transform-center-y="-1.983612"
           d="m -18.142855,41.488096 -49.641349,8.874195 -32.505956,-38.553572 17.1354,-47.427767 49.641349,-8.874195 32.5059526,38.553572 z"
           id="path1223"
           inkscape:connector-curvature="0" />
        <path
           inkscape:connector-curvature="0"
           id="path1225"
           d="m -131.56424,131.43207 51.626131,0.17687"
           style="fill:#008000;fill-opacity:0.31638417;fill-rule:evenodd;stroke:#66666d;stroke-width:0.5118795;stroke-linecap:butt;stroke-linejoin:miter;stroke-miterlimit:4;stroke-dasharray:none;stroke-opacity:1" />
        <path
           inkscape:connector-curvature="0"
           id="path1227"
           d="m -118.58113,109.12152 25.659906,44.79798"
           style="fill:#008000;fill-opacity:0.31638417;fill-rule:evenodd;stroke:#66666d;stroke-width:0.5118795;stroke-linecap:butt;stroke-linejoin:miter;stroke-miterlimit:4;stroke-dasharray:none;stroke-opacity:1" />
      </g>
      <g
         style="stroke:#66666d;stroke-opacity:1"
         transform="matrix(1.2825048,0,0,1.2825048,232.65017,168.87248)"
         inkscape:tile-y0="-44.632287"
         inkscape:tile-x0="-47.913818"
         id="use5084">
        <path
           transform="matrix(0.50357973,0.09180438,-0.09180438,0.50357973,-79.976061,134.69252)"
           style="opacity:1;fill:none;fill-opacity:0.31638417;stroke:#66666d;stroke-width:1.95358491;stroke-miterlimit:4;stroke-dasharray:none;stroke-dashoffset:0;stroke-opacity:1"
           inkscape:transform-center-x="0.22310539"
           inkscape:transform-center-y="-1.983612"
           d="m -83.15476,-35.619048 49.641349,-8.874195 32.5059526,38.553572 M -18.142855,41.488096 -67.784204,50.362291 -100.29016,11.808719"
           id="path1233"
           inkscape:connector-curvature="0"
           sodipodi:nodetypes="cccccc" />
        <path
           inkscape:connector-curvature="0"
           id="path1235"
           d="m -131.56424,131.43207 51.626131,0.17687"
           style="fill:#008000;fill-opacity:0.31638417;fill-rule:evenodd;stroke:#66666d;stroke-width:0.5118795;stroke-linecap:butt;stroke-linejoin:miter;stroke-miterlimit:4;stroke-dasharray:none;stroke-opacity:1" />
        <path
           inkscape:connector-curvature="0"
           id="path1237"
           d="m -118.58113,109.12152 25.659906,44.79798"
           style="fill:#008000;fill-opacity:0.31638417;fill-rule:evenodd;stroke:#66666d;stroke-width:0.5118795;stroke-linecap:butt;stroke-linejoin:miter;stroke-miterlimit:4;stroke-dasharray:none;stroke-opacity:1" />
        <path
           inkscape:connector-curvature="0"
           id="path1239"
           d="m -118.73429,153.83107 25.966229,-44.62112"
           style="fill:#008000;fill-opacity:0.31638417;fill-rule:evenodd;stroke:#66666d;stroke-width:0.5118795;stroke-linecap:butt;stroke-linejoin:miter;stroke-miterlimit:4;stroke-dasharray:none;stroke-opacity:1" />
      </g>
      <g
         style="stroke:#66666d;stroke-opacity:1"
         transform="matrix(1.2825048,0,0,1.2825048,181.88143,139.50317)"
         inkscape:tile-y0="-44.632287"
         inkscape:tile-x0="-47.913818"
         id="use5100">
        <path
           transform="matrix(0.50357973,0.09180438,-0.09180438,0.50357973,-79.976061,134.69252)"
           style="opacity:1;fill:none;fill-opacity:0.31638417;stroke:#66666d;stroke-width:1.95358491;stroke-miterlimit:4;stroke-dasharray:none;stroke-dashoffset:0;stroke-opacity:1"
           inkscape:transform-center-x="0.22310539"
           inkscape:transform-center-y="-1.983612"
           d="m -83.15476,-35.619048 49.641349,-8.874195 32.5059526,38.553572 M -18.142855,41.488096 -67.784204,50.362291 -100.29016,11.808719"
           id="path1283"
           inkscape:connector-curvature="0"
           sodipodi:nodetypes="cccccc" />
        <path
           inkscape:connector-curvature="0"
           id="path1285"
           d="m -131.56424,131.43207 51.626131,0.17687"
           style="fill:#008000;fill-opacity:0.31638417;fill-rule:evenodd;stroke:#66666d;stroke-width:0.5118795;stroke-linecap:butt;stroke-linejoin:miter;stroke-miterlimit:4;stroke-dasharray:none;stroke-opacity:1" />
        <path
           inkscape:connector-curvature="0"
           id="path1287"
           d="m -118.58113,109.12152 25.659906,44.79798"
           style="fill:#008000;fill-opacity:0.31638417;fill-rule:evenodd;stroke:#66666d;stroke-width:0.5118795;stroke-linecap:butt;stroke-linejoin:miter;stroke-miterlimit:4;stroke-dasharray:none;stroke-opacity:1" />
        <path
           inkscape:connector-curvature="0"
           id="path1289"
           d="m -118.73429,153.83107 25.966229,-44.62112"
           style="fill:#008000;fill-opacity:0.31638417;fill-rule:evenodd;stroke:#66666d;stroke-width:0.5118795;stroke-linecap:butt;stroke-linejoin:miter;stroke-miterlimit:4;stroke-dasharray:none;stroke-opacity:1" />
      </g>
      <g
         style="stroke:#66666d;stroke-opacity:1"
         transform="matrix(1.2825048,0,0,1.2825048,80.343931,139.50316)"
         inkscape:tile-y0="-44.632287"
         inkscape:tile-x0="-47.913818"
         id="use5102">
        <path
           transform="matrix(0.50357973,0.09180438,-0.09180438,0.50357973,-79.976061,134.69252)"
           style="opacity:1;fill:none;fill-opacity:0.31638417;stroke:#66666d;stroke-width:1.95358491;stroke-miterlimit:4;stroke-dasharray:none;stroke-dashoffset:0;stroke-opacity:1"
           inkscape:transform-center-x="0.22310539"
           inkscape:transform-center-y="-1.983612"
           d="m -67.784204,50.362291 -32.505956,-38.553572 17.1354,-47.427767 m 49.641349,-8.874195 32.5059526,38.553572 -17.1353966,47.427767"
           id="path1293"
           inkscape:connector-curvature="0"
           sodipodi:nodetypes="cccccc" />
        <path
           inkscape:connector-curvature="0"
           id="path1295"
           d="m -131.56424,131.43207 51.626131,0.17687"
           style="fill:#008000;fill-opacity:0.31638417;fill-rule:evenodd;stroke:#66666d;stroke-width:0.5118795;stroke-linecap:butt;stroke-linejoin:miter;stroke-miterlimit:4;stroke-dasharray:none;stroke-opacity:1" />
        <path
           inkscape:connector-curvature="0"
           id="path1297"
           d="m -118.58113,109.12152 25.659906,44.79798"
           style="fill:#008000;fill-opacity:0.31638417;fill-rule:evenodd;stroke:#66666d;stroke-width:0.5118795;stroke-linecap:butt;stroke-linejoin:miter;stroke-miterlimit:4;stroke-dasharray:none;stroke-opacity:1" />
        <path
           inkscape:connector-curvature="0"
           id="path1299"
           d="m -118.73429,153.83107 25.966229,-44.62112"
           style="fill:#008000;fill-opacity:0.31638417;fill-rule:evenodd;stroke:#66666d;stroke-width:0.5118795;stroke-linecap:butt;stroke-linejoin:miter;stroke-miterlimit:4;stroke-dasharray:none;stroke-opacity:1" />
      </g>
      <g
         style="stroke:#66666d;stroke-opacity:1"
         transform="matrix(1.2825048,0,0,1.2825048,80.343931,198.24182)"
         inkscape:tile-y0="-44.632287"
         inkscape:tile-x0="-47.913818"
         id="use5104">
        <path
           transform="matrix(0.50357973,0.09180438,-0.09180438,0.50357973,-79.976061,134.69252)"
           style="opacity:1;fill:none;fill-opacity:0.31638417;stroke:#66666d;stroke-width:1.95358491;stroke-miterlimit:4;stroke-dasharray:none;stroke-dashoffset:0;stroke-opacity:1"
           inkscape:transform-center-x="0.22310539"
           inkscape:transform-center-y="-1.983612"
           d="m -1.0074584,-5.939671 -17.1353966,47.427767 -49.641349,8.874195 -32.505956,-38.553572 17.1354,-47.427767"
           id="path1303"
           inkscape:connector-curvature="0"
           sodipodi:nodetypes="ccccc" />
        <path
           inkscape:connector-curvature="0"
           id="path1305"
           d="m -131.56424,131.43207 51.626131,0.17687"
           style="fill:#008000;fill-opacity:0.31638417;fill-rule:evenodd;stroke:#66666d;stroke-width:0.5118795;stroke-linecap:butt;stroke-linejoin:miter;stroke-miterlimit:4;stroke-dasharray:none;stroke-opacity:1" />
        <path
           inkscape:connector-curvature="0"
           id="path1307"
           d="m -118.58113,109.12152 25.659906,44.79798"
           style="fill:#008000;fill-opacity:0.31638417;fill-rule:evenodd;stroke:#66666d;stroke-width:0.5118795;stroke-linecap:butt;stroke-linejoin:miter;stroke-miterlimit:4;stroke-dasharray:none;stroke-opacity:1" />
        <path
           inkscape:connector-curvature="0"
           id="path1309"
           d="m -118.73429,153.83107 25.966229,-44.62112"
           style="fill:#008000;fill-opacity:0.31638417;fill-rule:evenodd;stroke:#66666d;stroke-width:0.5118795;stroke-linecap:butt;stroke-linejoin:miter;stroke-miterlimit:4;stroke-dasharray:none;stroke-opacity:1" />
      </g>
      <g
         style="stroke:#66666d;stroke-opacity:1"
         transform="matrix(1.2825048,0,0,1.2825048,131.11269,227.61114)"
         inkscape:tile-y0="-44.632287"
         inkscape:tile-x0="-47.913818"
         id="use5122">
        <path
           transform="matrix(0.50357973,0.09180438,-0.09180438,0.50357973,-79.976061,134.69252)"
           style="opacity:1;fill:none;fill-opacity:0.31638417;stroke:#66666d;stroke-width:1.95358491;stroke-miterlimit:4;stroke-dasharray:none;stroke-dashoffset:0;stroke-opacity:1"
           inkscape:transform-center-x="0.22310539"
           inkscape:transform-center-y="-1.983612"
           d="m -18.142855,41.488096 -49.641349,8.874195 -32.505956,-38.553572 17.1354,-47.427767 49.641349,-8.874195 32.5059526,38.553572 z"
           id="path1353"
           inkscape:connector-curvature="0" />
        <path
           inkscape:connector-curvature="0"
           id="path1355"
           d="m -131.56424,131.43207 51.626131,0.17687"
           style="fill:#008000;fill-opacity:0.31638417;fill-rule:evenodd;stroke:#66666d;stroke-width:0.5118795;stroke-linecap:butt;stroke-linejoin:miter;stroke-miterlimit:4;stroke-dasharray:none;stroke-opacity:1" />
        <path
           inkscape:connector-curvature="0"
           id="path1357"
           d="m -118.58113,109.12152 25.659906,44.79798"
           style="fill:#008000;fill-opacity:0.31638417;fill-rule:evenodd;stroke:#66666d;stroke-width:0.5118795;stroke-linecap:butt;stroke-linejoin:miter;stroke-miterlimit:4;stroke-dasharray:none;stroke-opacity:1" />
      </g>
      <g
         style="stroke:#66666d;stroke-opacity:1"
         transform="matrix(1.2825048,0,0,1.2825048,181.88143,80.76451)"
         inkscape:tile-y0="-44.632287"
         inkscape:tile-x0="-47.913818"
         id="use5124">
        <path
           transform="matrix(0.50357973,0.09180438,-0.09180438,0.50357973,-79.976061,134.69252)"
           style="opacity:1;fill:none;fill-opacity:0.31638417;stroke:#66666d;stroke-width:1.95358491;stroke-miterlimit:4;stroke-dasharray:none;stroke-dashoffset:0;stroke-opacity:1"
           inkscape:transform-center-x="0.22310539"
           inkscape:transform-center-y="-1.983612"
           d="m -18.142855,41.488096 -49.641349,8.874195 -32.505956,-38.553572 17.1354,-47.427767 49.641349,-8.874195 32.5059526,38.553572 z"
           id="path1363"
           inkscape:connector-curvature="0" />
        <path
           inkscape:connector-curvature="0"
           id="path1365"
           d="m -131.56424,131.43207 51.626131,0.17687"
           style="fill:#008000;fill-opacity:0.31638417;fill-rule:evenodd;stroke:#66666d;stroke-width:0.5118795;stroke-linecap:butt;stroke-linejoin:miter;stroke-miterlimit:4;stroke-dasharray:none;stroke-opacity:1" />
        <path
           inkscape:connector-curvature="0"
           id="path1367"
           d="m -118.58113,109.12152 25.659906,44.79798"
           style="fill:#008000;fill-opacity:0.31638417;fill-rule:evenodd;stroke:#66666d;stroke-width:0.5118795;stroke-linecap:butt;stroke-linejoin:miter;stroke-miterlimit:4;stroke-dasharray:none;stroke-opacity:1" />
      </g>
    </g>
  </g>
  <g
     inkscape:groupmode="layer"
     id="layer2"
     inkscape:label="Layer 2"
     style="display:inline"
     sodipodi:insensitive="true">
    <path
       transform="translate(84.227771,-153.25282)"
       style="opacity:1;fill:#fffe00;fill-opacity:1;fill-rule:evenodd;stroke:#ff00ff;stroke-width:1.41891849;stroke-miterlimit:4;stroke-dasharray:none;stroke-dashoffset:0;stroke-opacity:1"
       id="path998"
       sodipodi:type="arc"
       sodipodi:cx="29.743481"
       sodipodi:cy="337.62961"
       sodipodi:rx="4.2905397"
       sodipodi:ry="4.2905397"
       sodipodi:start="0.0074348059"
       sodipodi:end="0.0051188238"
       sodipodi:open="true"
       d="m 34.033902,337.66151 a 4.2905397,4.2905397 0 0 1 -4.319836,4.25854 4.2905397,4.2905397 0 0 1 -4.261041,-4.31737 4.2905397,4.2905397 0 0 1 4.314902,-4.26354 4.2905397,4.2905397 0 0 1 4.266037,4.31243" />
    <path
       transform="translate(84.227771,-153.25282)"
       style="opacity:1;fill:#00abff;fill-opacity:1;fill-rule:evenodd;stroke:none;stroke-width:1.01015258;stroke-miterlimit:4;stroke-dasharray:none;stroke-dashoffset:0;stroke-opacity:1"
       d="m 13.692825,411.8445 c -3.195346,-7.42593 -4.249155,-10.95301 -4.5235808,-15.14023 -0.2972329,-4.53573 0.9616018,-8.78859 3.7637508,-12.71546 1.206712,-1.69104 5.577258,-6.02073 6.077585,-6.02073 0.154358,0 0.215053,-0.25093 0.134858,-0.55763 -0.100145,-0.38289 0.256011,-1.15763 1.136518,-2.47224 2.147596,-3.20651 2.785798,-4.65979 2.805165,-6.38805 l 0.0172,-1.53347 -2.828872,-2.74284 C 17.15625,361.24952 17.106111,361.1671 14.013767,353.9763 10.54844,345.91826 9.5652745,342.8655 9.0255774,338.48792 8.1780112,331.6128 11.160633,324.87023 17.226549,319.94866 c 2.82194,-2.28955 7.128722,-9.20167 7.910777,-12.69627 0.441696,-1.97367 0.05207,-3.66612 -1.731327,-7.52049 -1.684602,-3.64085 -2.614665,-6.00162 -2.435146,-6.18114 0.06911,-0.0691 0.366951,0.0927 0.661856,0.35958 0.354435,0.32078 0.536178,0.37071 0.536178,0.14734 0,-0.18584 -1.421448,-2.1033 -3.158781,-4.26102 -1.737307,-2.15772 -3.672047,-4.67899 -4.2994,-5.60281 -5.0496788,-7.43596 -4.647539,-13.96946 1.375913,-22.35437 1.273704,-1.77306 2.337805,-3.7866 4.047648,-7.65913 2.606067,-5.90235 3.101764,-7.64197 2.627313,-9.22041 -0.331708,-1.1036 -3.228314,-5.76314 -8.115459,-13.05465 -3.528457,-5.26444 -4.9420196,-7.87485 -6.1624367,-11.38023 -0.8416396,-2.41738 -0.8763264,-2.67766 -0.8698177,-6.52683 0.00635,-3.80832 0.047784,-4.11911 0.825791,-6.20748 0.9820275,-2.63598 2.9912204,-6.03933 4.6420614,-7.86305 l 1.202717,-1.32867 2.203185,2.92641 2.203185,2.92642 -1.449334,3.03594 c -2.547303,5.33585 -3.297476,8.67348 -2.549763,11.34408 0.189759,0.67772 1.53371,3.05459 2.986564,5.28193 1.452853,2.22734 2.714757,4.35038 2.804239,4.71788 0.08945,0.3675 0.921729,1.69048 1.849464,2.93997 3.493241,4.70471 5.769901,9.13872 6.675781,13.00174 0.696251,2.96918 0.421085,7.32082 -0.665109,10.51797 -1.070796,3.15189 -2.544763,5.94639 -4.590415,8.70293 -2.346696,3.16225 -5.493518,10.27732 -5.782125,13.07358 l -0.14904,1.44396 2.202445,2.08733 c 2.925656,2.77277 4.204335,4.62174 6.452182,9.32991 4.466352,9.35486 5.880735,14.5957 5.308653,19.67062 -0.587746,5.21383 -2.489915,8.6851 -7.440772,13.57868 -3.305439,3.26718 -6.297136,7.30689 -7.869555,10.62625 -0.75348,1.59064 -0.852672,2.06685 -0.848201,4.07303 0.0048,2.17898 0.07213,2.4301 1.647428,6.1472 0.903314,2.13147 1.835706,4.5464 2.071979,5.36651 0.51054,1.77209 2.125292,4.64032 5.480209,9.73421 2.736638,4.15512 4.607321,7.81543 5.101325,9.98159 0.182139,0.79858 0.27215,2.35723 0.204073,3.53318 -0.201665,3.48368 -2.174319,6.77716 -6.232657,10.40586 -2.169319,1.93966 -5.193401,6.10699 -6.968834,9.60336 -0.869077,1.71145 -1.02198,2.28448 -1.105429,4.14268 -0.09282,2.06647 -0.04498,2.27922 1.146281,5.09645 0.683736,1.61698 1.618826,3.97558 2.077958,5.24135 l 0.83476,2.30134 -2.115926,3.11084 c -1.163769,1.71098 -2.187786,3.11087 -2.275628,3.11087 -0.08784,0 -0.897176,-1.71387 -1.798532,-3.8086 z"
       id="path2609"
       inkscape:connector-curvature="0" />
    <path
       transform="translate(84.227771,-153.25282)"
       d="m -81.171569,366.80409 a 4.2905397,4.2905397 0 0 1 -4.319836,4.25854 4.2905397,4.2905397 0 0 1 -4.261041,-4.31737 4.2905397,4.2905397 0 0 1 4.314902,-4.26354 4.2905397,4.2905397 0 0 1 4.266037,4.31243"
       sodipodi:open="true"
       sodipodi:end="0.0051188238"
       sodipodi:start="0.0074348059"
       sodipodi:ry="4.2905397"
       sodipodi:rx="4.2905397"
       sodipodi:cy="366.77219"
       sodipodi:cx="-85.46199"
       sodipodi:type="arc"
       id="path2611"
       style="opacity:1;fill:none;fill-opacity:1;fill-rule:evenodd;stroke:#ff0000;stroke-width:1.41891849;stroke-miterlimit:4;stroke-dasharray:none;stroke-dashoffset:0;stroke-opacity:1" />
    <path
       transform="translate(84.227771,-153.25282)"
       style="opacity:1;fill:none;fill-opacity:1;fill-rule:evenodd;stroke:#ff0000;stroke-width:1.41891849;stroke-miterlimit:4;stroke-dasharray:none;stroke-dashoffset:0;stroke-opacity:1"
       id="path2613"
       sodipodi:type="arc"
       sodipodi:cx="-85.46199"
       sodipodi:cy="248.3718"
       sodipodi:rx="4.2905397"
       sodipodi:ry="4.2905397"
       sodipodi:start="0.0074348059"
       sodipodi:end="0.0051188238"
       sodipodi:open="true"
       d="m -81.171569,248.40369 a 4.2905397,4.2905397 0 0 1 -4.319836,4.25854 4.2905397,4.2905397 0 0 1 -4.261041,-4.31737 4.2905397,4.2905397 0 0 1 4.314902,-4.26353 4.2905397,4.2905397 0 0 1 4.266037,4.31243" />
    <path
       transform="translate(84.227771,-153.25282)"
       d="m 67.66845,219.76847 a 4.2905397,4.2905397 0 0 1 -4.319836,4.25854 4.2905397,4.2905397 0 0 1 -4.26104,-4.31737 4.2905397,4.2905397 0 0 1 4.314901,-4.26354 4.2905397,4.2905397 0 0 1 4.266037,4.31243"
       sodipodi:open="true"
       sodipodi:end="0.0051188238"
       sodipodi:start="0.0074348059"
       sodipodi:ry="4.2905397"
       sodipodi:rx="4.2905397"
       sodipodi:cy="219.73657"
       sodipodi:cx="63.378029"
       sodipodi:type="arc"
       id="path2615"
       style="opacity:1;fill:none;fill-opacity:1;fill-rule:evenodd;stroke:#ff0000;stroke-width:1.41891849;stroke-miterlimit:4;stroke-dasharray:none;stroke-dashoffset:0;stroke-opacity:1" />
    <path
       transform="translate(84.227771,-153.25282)"
       style="opacity:1;fill:none;fill-opacity:1;fill-rule:evenodd;stroke:#ff0000;stroke-width:1.41891849;stroke-miterlimit:4;stroke-dasharray:none;stroke-dashoffset:0;stroke-opacity:1"
       id="path2617"
       sodipodi:type="arc"
       sodipodi:cx="113.61761"
       sodipodi:cy="249.63506"
       sodipodi:rx="4.2905397"
       sodipodi:ry="4.2905397"
       sodipodi:start="0.0074348059"
       sodipodi:end="0.0051188238"
       sodipodi:open="true"
       d="m 117.90803,249.66695 a 4.2905397,4.2905397 0 0 1 -4.31984,4.25854 4.2905397,4.2905397 0 0 1 -4.26104,-4.31737 4.2905397,4.2905397 0 0 1 4.3149,-4.26353 4.2905397,4.2905397 0 0 1 4.26604,4.31243" />
    <path
       transform="translate(84.227771,-153.25282)"
       d="m -81.171569,308.0048 a 4.2905397,4.2905397 0 0 1 -4.319836,4.25854 4.2905397,4.2905397 0 0 1 -4.261041,-4.31737 4.2905397,4.2905397 0 0 1 4.314902,-4.26354 4.2905397,4.2905397 0 0 1 4.266037,4.31243"
       sodipodi:open="true"
       sodipodi:end="0.0051188238"
       sodipodi:start="0.0074348059"
       sodipodi:ry="4.2905397"
       sodipodi:rx="4.2905397"
       sodipodi:cy="307.9729"
       sodipodi:cx="-85.46199"
       sodipodi:type="arc"
       id="path2619"
       style="opacity:1;fill:none;fill-opacity:1;fill-rule:evenodd;stroke:#ff0000;stroke-width:1.41891849;stroke-miterlimit:4;stroke-dasharray:none;stroke-dashoffset:0;stroke-opacity:1" />
    <path
       d="m 201.9393,213.02216 a 4.2905397,4.2905397 0 0 1 -4.31983,4.25854 4.2905397,4.2905397 0 0 1 -4.26105,-4.31737 4.2905397,4.2905397 0 0 1 4.31491,-4.26354 4.2905397,4.2905397 0 0 1 4.26603,4.31244"
       sodipodi:open="true"
       sodipodi:end="0.0051188238"
       sodipodi:start="0.0074348059"
       sodipodi:ry="4.2905397"
       sodipodi:rx="4.2905397"
       sodipodi:cy="212.99026"
       sodipodi:cx="197.64888"
       sodipodi:type="arc"
       id="path885"
       style="opacity:1;fill:none;fill-opacity:1;fill-rule:evenodd;stroke:#aad400;stroke-width:1.41891849;stroke-miterlimit:4;stroke-dasharray:none;stroke-dashoffset:0;stroke-opacity:1" />
    <path
       style="opacity:1;fill:none;fill-opacity:1;fill-rule:evenodd;stroke:#aad400;stroke-width:1.41891849;stroke-miterlimit:4;stroke-dasharray:none;stroke-dashoffset:0;stroke-opacity:1"
       id="path887"
       sodipodi:type="arc"
       sodipodi:cx="146.35098"
       sodipodi:cy="243.41792"
       sodipodi:rx="4.2905397"
       sodipodi:ry="4.2905397"
       sodipodi:start="0.0074348059"
       sodipodi:end="0.0051188238"
       sodipodi:open="true"
       d="m 150.6414,243.44982 a 4.2905397,4.2905397 0 0 1 -4.31983,4.25854 4.2905397,4.2905397 0 0 1 -4.26104,-4.31737 4.2905397,4.2905397 0 0 1 4.3149,-4.26354 4.2905397,4.2905397 0 0 1 4.26604,4.31244" />
    <path
       d="m 67.296502,272.17658 a 4.2905397,4.2905397 0 0 1 -4.319836,4.25854 4.2905397,4.2905397 0 0 1 -4.261041,-4.31737 4.2905397,4.2905397 0 0 1 4.314902,-4.26354 4.2905397,4.2905397 0 0 1 4.266037,4.31244"
       sodipodi:open="true"
       sodipodi:end="0.0051188238"
       sodipodi:start="0.0074348059"
       sodipodi:ry="4.2905397"
       sodipodi:rx="4.2905397"
       sodipodi:cy="272.14468"
       sodipodi:cx="63.006081"
       sodipodi:type="arc"
       id="path889"
       style="opacity:1;fill:none;fill-opacity:1;fill-rule:evenodd;stroke:#aad400;stroke-width:1.41891849;stroke-miterlimit:4;stroke-dasharray:none;stroke-dashoffset:0;stroke-opacity:1" />
    <path
       style="opacity:1;fill:none;fill-opacity:1;fill-rule:evenodd;stroke:#aad400;stroke-width:1.41891849;stroke-miterlimit:4;stroke-dasharray:none;stroke-dashoffset:0;stroke-opacity:1"
       id="path895"
       sodipodi:type="arc"
       sodipodi:cx="62.970299"
       sodipodi:cy="39.24102"
       sodipodi:rx="4.2905397"
       sodipodi:ry="4.2905397"
       sodipodi:start="0.0074348059"
       sodipodi:end="0.0051188238"
       sodipodi:open="true"
       d="m 67.26072,39.272919 a 4.2905397,4.2905397 0 0 1 -4.319836,4.25854 4.2905397,4.2905397 0 0 1 -4.26104,-4.31737 4.2905397,4.2905397 0 0 1 4.314901,-4.263539 4.2905397,4.2905397 0 0 1 4.266037,4.312433" />
    <path
       style="opacity:1;fill:none;fill-opacity:1;fill-rule:evenodd;stroke:#aad400;stroke-width:1.41891849;stroke-miterlimit:4;stroke-dasharray:none;stroke-dashoffset:0;stroke-opacity:1"
       id="path897"
       sodipodi:type="arc"
       sodipodi:cx="96.307831"
       sodipodi:cy="38.182686"
       sodipodi:rx="4.2905397"
       sodipodi:ry="4.2905397"
       sodipodi:start="0.0074348059"
       sodipodi:end="0.0051188238"
       sodipodi:open="true"
       d="m 100.59825,38.214585 a 4.2905397,4.2905397 0 0 1 -4.319834,4.25854 4.2905397,4.2905397 0 0 1 -4.26104,-4.31737 4.2905397,4.2905397 0 0 1 4.314901,-4.263539 4.2905397,4.2905397 0 0 1 4.266033,4.312432" />
  </g>
</svg>
